<svg width="147" height="147" viewBox="0 0 147 147" fill="none" xmlns="http://www.w3.org/2000/svg">
<path fill-rule="evenodd" clip-rule="evenodd" d="M73.5 147C114.093 147 147 114.093 147 73.5C147 32.9071 114.093 0 73.5 0C32.9071 0 0 32.9071 0 73.5C0 114.093 32.9071 147 73.5 147ZM68.8741 117.245C68.8741 118.349 69.7696 119.245 70.8741 119.245H76.9825C78.0871 119.245 78.9825 118.349 78.9825 117.245V55.4545C78.9825 54.35 78.0871 53.4545 76.9825 53.4545H70.8741C69.7696 53.4545 68.8741 54.35 68.8741 55.4545V117.245ZM68.917 40.4764C70.3447 41.8185 72.0437 42.4895 74.014 42.4895C75.9843 42.4895 77.669 41.8185 79.0682 40.4764C80.4959 39.1343 81.2098 37.521 81.2098 35.6364C81.2098 33.7517 80.4959 32.1384 79.0682 30.7963C77.669 29.4543 75.9843 28.7832 74.014 28.7832C72.0437 28.7832 70.3447 29.4543 68.917 30.7963C67.5178 32.1384 66.8182 33.7517 66.8182 35.6364C66.8182 37.521 67.5178 39.1343 68.917 40.4764Z" fill="#07689F"/>
</svg>
