<svg width="189" height="147" viewBox="0 0 189 147" fill="none" xmlns="http://www.w3.org/2000/svg">
<path d="M29.5298 52.8813L16.4331 55.3036C12.2648 56.0746 12.1545 62.0052 16.2913 62.9306L99.3911 81.5181C100.06 81.6678 100.758 81.6382 101.412 81.4322L183.275 55.6567C187.119 54.4463 186.818 48.9112 182.865 48.1255L175.376 46.6372L86.2948 69.0947C71.257 64.7676 49.0749 58.4153 29.5298 52.8813Z" fill="#07689F"/>
<path d="M18.0107 81.4207L6.38293 82.9646C2.30177 83.5066 1.74326 89.1827 5.64055 90.5089L79.925 115.788C80.5891 116.014 81.302 116.056 81.9883 115.911L172.182 96.7883C176.186 95.9394 176.337 90.2821 172.384 89.2205L161.629 86.3324L101.387 103.644L18.0107 81.4207Z" fill="#07689F"/>
<path d="M17.9626 25.1197C14.0435 23.8437 14.5338 18.1523 18.6136 17.565L119.505 3.03976C120.077 2.95749 120.659 3.00325 121.211 3.17374L179.85 21.2974C183.7 22.4874 183.428 28.0233 179.48 28.8305L88.2767 47.4774C87.6159 47.6125 86.9313 47.5738 86.29 47.365L17.9626 25.1197Z" fill="#07689F"/>
<path d="M76.7953 143.954L12.7829 123.596L80.2074 140.566C80.3683 140.606 80.537 140.605 80.6973 140.562L167.279 117.355C167.485 117.3 167.703 117.313 167.9 117.394L175.424 120.47C176.307 120.832 176.197 122.116 175.265 122.321L77.3008 143.977C77.1333 144.014 76.9589 144.006 76.7953 143.954Z" fill="#07689F"/>
<path d="M16.4331 55.3036L15.9784 52.8453L15.9784 52.8453L16.4331 55.3036ZM29.5298 52.8813L30.2109 50.4758L29.6492 50.3168L29.0751 50.423L29.5298 52.8813ZM16.2913 62.9306L15.7455 65.3703L15.7456 65.3703L16.2913 62.9306ZM99.3911 81.5181L99.9369 79.0784L99.9368 79.0784L99.3911 81.5181ZM101.412 81.4322L100.661 79.0476L100.661 79.0476L101.412 81.4322ZM183.275 55.6567L184.026 58.0413H184.026L183.275 55.6567ZM182.865 48.1255L183.352 45.6734L183.352 45.6734L182.865 48.1255ZM175.376 46.6372L175.864 44.1852L175.311 44.0754L174.765 44.2131L175.376 46.6372ZM86.2948 69.0947L85.6035 71.4972L86.2518 71.6837L86.9059 71.5188L86.2948 69.0947ZM6.38293 82.9646L6.05387 80.4864H6.05385L6.38293 82.9646ZM18.0107 81.4207L18.6546 79.0051L18.1744 78.8771L17.6817 78.9425L18.0107 81.4207ZM5.64055 90.5089L4.83515 92.8756H4.83516L5.64055 90.5089ZM79.925 115.788L80.7306 113.421L80.7304 113.421L79.925 115.788ZM81.9883 115.911L82.5067 118.357L82.5068 118.357L81.9883 115.911ZM172.182 96.7883L171.663 94.3427L171.663 94.3427L172.182 96.7883ZM172.384 89.2205L173.033 86.806H173.033L172.384 89.2205ZM161.629 86.3324L162.278 83.9179L161.607 83.7377L160.939 83.9296L161.629 86.3324ZM101.387 103.644L100.743 106.06L101.412 106.238L102.077 106.047L101.387 103.644ZM88.2767 47.4774L88.7775 49.9267L88.2767 47.4774ZM86.29 47.365L85.5161 49.7422L86.29 47.365ZM179.85 21.2974L180.588 18.9089L179.85 21.2974ZM179.48 28.8305L178.979 26.3812L179.48 28.8305ZM119.505 3.03976L119.149 0.565276L119.505 3.03976ZM121.211 3.17374L120.473 5.56226L121.211 3.17374ZM18.6136 17.565L18.9698 20.0395L18.6136 17.565ZM17.9626 25.1197L18.7366 22.7425L17.9626 25.1197ZM174.412 51.5765L176.179 53.3446C176.979 52.5456 177.142 51.3096 176.579 50.3299L174.412 51.5765ZM172.464 56.9292L174.492 55.4668C174.483 55.4541 174.474 55.4414 174.464 55.4288L172.464 56.9292ZM164.675 90.0192L163.501 87.8118C162.904 88.1293 162.461 88.6752 162.273 89.3249C162.086 89.9747 162.169 90.6728 162.505 91.2599L164.675 90.0192ZM171.004 94.8853L172.078 97.1427C172.999 96.7043 173.562 95.7503 173.499 94.7321C173.437 93.714 172.762 92.836 171.794 92.5135L171.004 94.8853ZM167.596 118.73L168.386 121.101C169.215 120.825 169.84 120.136 170.034 119.284L167.596 118.73ZM81.9134 140.141L81.3153 142.568C81.7061 142.664 82.1144 142.665 82.5055 142.57L81.9134 140.141ZM12.7829 123.109L11.1045 124.962C11.4115 125.24 11.7827 125.437 12.1849 125.536L12.7829 123.109ZM10.3487 90.9924L8.58138 89.2242C8.48997 89.3156 8.40579 89.4139 8.32958 89.5183L10.3487 90.9924ZM17.1644 82.2333L19.4621 83.2185C19.5147 83.0959 19.5574 82.9693 19.5897 82.8399L17.1644 82.2333ZM20.0854 58.3891L19.8938 60.8817C21.0075 60.9674 22.043 60.3037 22.4303 59.256C22.8177 58.2082 22.4629 57.0306 21.5613 56.3712L20.0854 58.3891ZM20.0426 22.5392C20.937 21.4873 20.8095 19.9096 19.7576 19.0151C18.7058 18.1207 17.128 18.2483 16.2336 19.3001L20.0426 22.5392ZM86.7817 71.5277H84.2817V73.3697L86.041 73.9155L86.7817 71.5277ZM100.9 75.9073H103.4V74.0653L101.641 73.5195L100.9 75.9073ZM100.9 106.078L101.341 108.538L103.4 108.169V106.078H100.9ZM81.9133 109.484L81.4719 107.023L79.4133 107.392V109.484H81.9133ZM12.7829 123.596L13.3931 121.171L12.0252 125.978L12.7829 123.596ZM76.7953 143.954L76.0376 146.337L76.0377 146.337L76.7953 143.954ZM77.3008 143.977L76.7612 141.536L76.7612 141.536L77.3008 143.977ZM175.265 122.321L174.726 119.88H174.726L175.265 122.321ZM175.424 120.47L176.37 118.156H176.37L175.424 120.47ZM167.9 117.394L168.846 115.08L168.846 115.08L167.9 117.394ZM167.279 117.355L166.632 114.94L166.632 114.94L167.279 117.355ZM80.6973 140.562L80.0501 138.147H80.0501L80.6973 140.562ZM80.2074 140.566L80.8176 138.141L80.2074 140.566ZM16.8877 57.7619L29.9845 55.3396L29.0751 50.423L15.9784 52.8453L16.8877 57.7619ZM16.837 60.4909C15.356 60.1596 15.3953 58.0379 16.8878 57.7619L15.9784 52.8453C9.13426 54.1112 8.95297 63.8508 15.7455 65.3703L16.837 60.4909ZM99.9368 79.0784L16.837 60.4908L15.7456 65.3703L98.8454 83.9578L99.9368 79.0784ZM100.661 79.0476C100.427 79.1214 100.177 79.1321 99.9369 79.0784L98.8453 83.9578C99.9442 84.2036 101.089 84.155 102.163 83.8168L100.661 79.0476ZM182.524 53.2721L100.661 79.0476L102.163 83.8168L184.026 58.0413L182.524 53.2721ZM182.377 50.5775C183.793 50.8589 183.9 52.839 182.524 53.2721L184.026 58.0413C190.339 56.0536 189.842 46.9634 183.352 45.6734L182.377 50.5775ZM174.889 49.0893L182.377 50.5775L183.352 45.6734L175.864 44.1852L174.889 49.0893ZM174.765 44.2131L85.6837 66.6705L86.9059 71.5188L175.988 49.0614L174.765 44.2131ZM86.9861 66.6921C71.9462 62.3644 49.7605 56.0111 30.2109 50.4758L28.8487 55.2867C48.3894 60.8195 70.5679 67.1707 85.6035 71.4972L86.9861 66.6921ZM6.71198 85.4429L18.3398 83.899L17.6817 78.9425L6.05387 80.4864L6.71198 85.4429ZM6.44595 88.1422C5.05192 87.6678 5.24958 85.6371 6.712 85.4429L6.05385 80.4864C-0.646045 81.376 -1.56539 90.6975 4.83515 92.8756L6.44595 88.1422ZM80.7304 113.421L6.44594 88.1422L4.83516 92.8756L79.1197 118.155L80.7304 113.421ZM81.4698 113.465C81.2238 113.517 80.9683 113.502 80.7306 113.421L79.1195 118.155C80.2099 118.526 81.3802 118.595 82.5067 118.357L81.4698 113.465ZM171.663 94.3427L81.4697 113.465L82.5068 118.357L172.701 99.2339L171.663 94.3427ZM171.736 91.635C173.151 92.0149 173.097 94.0387 171.663 94.3427L172.7 99.2339C179.275 97.8401 179.524 88.5492 173.033 86.806L171.736 91.635ZM160.981 88.7469L171.736 91.635L173.033 86.806L162.278 83.9179L160.981 88.7469ZM160.939 83.9296L100.696 101.242L102.077 106.047L162.32 88.7352L160.939 83.9296ZM102.031 101.229L18.6546 79.0051L17.3668 83.8364L100.743 106.06L102.031 101.229ZM18.9698 20.0395L119.862 5.51425L119.149 0.565276L18.2573 15.0905L18.9698 20.0395ZM120.473 5.56226L179.112 23.6859L180.588 18.9089L121.949 0.785221L120.473 5.56226ZM178.979 26.3812L87.7759 45.0281L88.7775 49.9267L179.981 31.2799L178.979 26.3812ZM87.064 44.9878L18.7366 22.7425L17.1887 27.4969L85.5161 49.7422L87.064 44.9878ZM87.7759 45.0281C87.5391 45.0765 87.2938 45.0626 87.064 44.9878L85.5161 49.7422C86.5689 50.0849 87.6927 50.1485 88.7775 49.9267L87.7759 45.0281ZM179.112 23.6859C180.49 24.1118 180.393 26.0921 178.979 26.3812L179.981 31.2799C186.463 29.9545 186.911 20.863 180.588 18.9089L179.112 23.6859ZM119.862 5.51425C120.066 5.48476 120.275 5.50117 120.473 5.56226L121.949 0.785221C121.044 0.505332 120.087 0.430209 119.149 0.565276L119.862 5.51425ZM18.2573 15.0905C11.5596 16.0548 10.7524 25.4014 17.1887 27.4969L18.7366 22.7425C17.3345 22.286 17.5081 20.2499 18.9698 20.0395L18.2573 15.0905ZM177.278 23.0206C174.231 24.3961 170.464 27.5559 168.745 32.6505C166.997 37.8298 167.503 44.5798 172.245 52.8231L176.579 50.3299C172.363 43.0014 172.301 37.7482 173.482 34.2495C174.692 30.6661 177.352 28.4731 179.335 27.5778L177.278 23.0206ZM172.644 49.8083C169.549 52.9026 168.867 56.3004 170.465 58.4296L174.464 55.4288C175.088 56.2605 173.822 55.7004 176.179 53.3446L172.644 49.8083ZM170.437 58.3917C172.728 61.568 175.078 66.8616 174.823 72.3238C174.579 77.5608 171.934 83.3284 163.501 87.8118L165.849 92.2266C175.721 86.9776 179.486 79.6876 179.818 72.5565C180.14 65.6505 177.232 59.2653 174.492 55.4668L170.437 58.3917ZM162.505 91.2599C163.54 93.0713 165.088 94.4242 166.475 95.3624C167.87 96.3059 169.268 96.9422 170.214 97.2571L171.794 92.5135C171.279 92.3419 170.292 91.9076 169.277 91.2209C168.254 90.5289 167.368 89.692 166.845 88.7784L162.505 91.2599ZM169.93 92.628C164.938 95.0039 159.536 103.683 165.243 119.575L169.949 117.885C164.751 103.411 170.254 98.0109 172.078 97.1427L169.93 92.628ZM166.806 116.358C164.591 117.096 149.978 120.791 132.38 125.16C114.875 129.506 94.6259 134.468 81.3212 137.712L82.5055 142.57C95.8144 139.325 116.07 134.361 133.585 130.012C151.006 125.687 165.927 121.921 168.386 121.101L166.806 116.358ZM82.5114 137.713L13.381 120.682L12.1849 125.536L81.3153 142.568L82.5114 137.713ZM14.4613 121.256C12.1867 119.196 9.25775 115.203 8.11373 110.137C6.99481 105.183 7.54613 99.0712 12.3679 92.4665L8.32958 89.5183C2.63575 97.3175 1.80771 104.912 3.23656 111.239C4.64029 117.455 8.18627 122.318 11.1045 124.962L14.4613 121.256ZM12.1161 92.7606C16.5288 88.3499 18.8055 84.7498 19.4621 83.2185L14.8667 81.2481C14.5496 81.9876 12.737 85.0705 8.58138 89.2242L12.1161 92.7606ZM21.5613 56.3712C18.8011 54.3525 15.311 49.4613 14.106 43.1967C12.9288 37.0763 13.9465 29.7078 20.0426 22.5392L16.2336 19.3001C9.08782 27.7031 7.75249 36.6363 9.19603 44.1412C10.6118 51.5018 14.7163 57.5595 18.6096 60.407L21.5613 56.3712ZM20.2771 55.8964C18.829 55.7851 17.491 56.2259 16.4626 57.2274C15.5282 58.1373 15.039 59.3259 14.7586 60.4044C14.2036 62.5388 14.2112 65.2971 14.3388 67.9147C14.4045 69.264 14.5082 70.6588 14.6118 72.0138C14.7162 73.3808 14.8201 74.7016 14.8922 75.955C15.042 78.5591 15.0231 80.4913 14.7391 81.6267L19.5897 82.8399C20.0847 80.861 20.0293 78.1946 19.8839 75.6679C19.8085 74.3559 19.7001 72.9783 19.5972 71.6328C19.4935 70.2753 19.3949 68.9435 19.3328 67.6712C19.2049 65.0455 19.2551 62.9802 19.5977 61.6627C19.6769 61.3581 19.7601 61.1427 19.8331 60.9975C19.9055 60.8534 19.9531 60.8074 19.9509 60.8095C19.8683 60.8899 19.7597 60.8714 19.8938 60.8817L20.2771 55.8964ZM84.2817 44.7638V71.5277H89.2817V44.7638H84.2817ZM86.041 73.9155L100.159 78.295L101.641 73.5195L87.5224 69.14L86.041 73.9155ZM98.3999 75.9073V106.078H103.4V75.9073H98.3999ZM100.458 103.617L81.4719 107.023L82.3548 111.945L101.341 108.538L100.458 103.617ZM79.4133 109.484V139.654H84.4133V109.484H79.4133ZM12.0252 125.978L76.0376 146.337L77.553 141.572L13.5406 121.213L12.0252 125.978ZM77.8404 146.418L175.805 124.763L174.726 119.88L76.7612 141.536L77.8404 146.418ZM176.37 118.156L168.846 115.08L166.954 119.708L174.477 122.784L176.37 118.156ZM166.632 114.94L80.0501 138.147L81.3446 142.977L167.926 119.769L166.632 114.94ZM80.8176 138.141L13.3931 121.171L12.1727 126.02L79.5972 142.99L80.8176 138.141ZM80.0501 138.147C80.3011 138.08 80.5653 138.078 80.8176 138.141L79.5972 142.99C80.1714 143.134 80.7729 143.13 81.3446 142.976L80.0501 138.147ZM168.846 115.08C168.143 114.792 167.365 114.743 166.632 114.94L167.926 119.769C167.604 119.856 167.263 119.834 166.954 119.708L168.846 115.08ZM175.805 124.763C179.129 124.028 179.522 119.445 176.37 118.156L174.477 122.784C173.092 122.218 173.265 120.203 174.726 119.88L175.805 124.763ZM76.0377 146.337C76.6209 146.522 77.2428 146.55 77.8404 146.418L76.7612 141.536C77.0237 141.478 77.2968 141.49 77.553 141.572L76.0377 146.337ZM170.034 119.284L170.338 117.948L165.462 116.839L165.158 118.175L170.034 119.284ZM170.032 118.168L169.715 116.793L164.843 117.916L165.16 119.291L170.032 118.168ZM168.058 114.899L167.437 114.86L167.121 119.85L167.742 119.889L168.058 114.899Z" fill="#07689F"/>
</svg>
