<svg width="213" height="123" viewBox="0 0 213 123" fill="none" xmlns="http://www.w3.org/2000/svg">
<path fill-rule="evenodd" clip-rule="evenodd" d="M25 0C11.1929 0 0 11.1929 0 25V101.07C0 106.671 1.8419 111.841 4.95304 116.009L106.62 29.3438L207.622 115.442C210.483 111.376 212.164 106.419 212.164 101.07V25C212.164 11.1929 200.971 0 187.164 0H25ZM205.066 118.519L106.62 34.5999L7.59362 119.014C8.88797 120.27 10.3177 121.387 11.8589 122.341H200.305C202.045 121.264 203.644 119.978 205.066 118.519Z" fill="#07689F"/>
<path fill-rule="evenodd" clip-rule="evenodd" d="M190.789 0.27172C190.838 0.27172 190.887 0.27533 190.935 0.282676C200.16 1.67864 207.731 8.11558 210.752 16.697C210.915 17.1605 210.698 17.6676 210.258 17.8869L109.744 67.9985C107.777 68.979 105.464 68.979 103.497 67.9985L2.07115 17.4324C1.62474 17.2098 1.40855 16.6914 1.58367 16.2244C4.71235 7.87982 12.1736 1.65284 21.2284 0.282661C21.2769 0.275315 21.3261 0.271706 21.3752 0.271706L190.789 0.27172Z" fill="#FF7E67"/>
</svg>
