<svg width="156" height="180" viewBox="0 0 156 180" fill="none" xmlns="http://www.w3.org/2000/svg">
<path d="M1.5 5C1.5 3.067 3.067 1.5 5 1.5H115C116.933 1.5 118.5 3.067 118.5 5V165C118.5 172.456 112.456 178.5 105 178.5H5C3.067 178.5 1.5 176.933 1.5 175V5Z" stroke="#07689F" stroke-width="3"/>
<path d="M1.5 5C1.5 3.067 3.067 1.5 5 1.5H115C116.933 1.5 118.5 3.067 118.5 5V159C118.5 166.456 112.456 172.5 105 172.5H5C3.067 172.5 1.5 170.933 1.5 169V5Z" stroke="#07689F" stroke-width="3"/>
<path fill-rule="evenodd" clip-rule="evenodd" d="M5 0C2.23858 0 0 2.23857 0 5V164C0 166.761 2.23858 169 5 169H105C113.284 169 120 162.284 120 154V5C120 2.23858 117.761 0 115 0H5ZM21.5 30C20.6716 30 20 30.6716 20 31.5C20 32.3284 20.6716 33 21.5 33H98.5C99.3284 33 100 32.3284 100 31.5C100 30.6716 99.3284 30 98.5 30H21.5ZM20 65.5C20 64.6716 20.6716 64 21.5 64H98.5C99.3284 64 100 64.6716 100 65.5C100 66.3284 99.3284 67 98.5 67H21.5C20.6716 67 20 66.3284 20 65.5ZM30.5 47C29.6716 47 29 47.6716 29 48.5C29 49.3284 29.6716 50 30.5 50H89.5C90.3284 50 91 49.3284 91 48.5C91 47.6716 90.3284 47 89.5 47H30.5ZM29 82.5C29 81.6716 29.6716 81 30.5 81H89.5C90.3284 81 91 81.6716 91 82.5C91 83.3284 90.3284 84 89.5 84H30.5C29.6716 84 29 83.3284 29 82.5ZM30.5 115C29.6716 115 29 115.672 29 116.5C29 117.328 29.6716 118 30.5 118H89.5C90.3284 118 91 117.328 91 116.5C91 115.672 90.3284 115 89.5 115H30.5ZM20 99.5C20 98.6716 20.6716 98 21.5 98H98.5C99.3284 98 100 98.6716 100 99.5C100 100.328 99.3284 101 98.5 101H21.5C20.6716 101 20 100.328 20 99.5ZM21.5 132C20.6716 132 20 132.672 20 133.5C20 134.328 20.6716 135 21.5 135H98.5C99.3284 135 100 134.328 100 133.5C100 132.672 99.3284 132 98.5 132H21.5Z" fill="#07689F"/>
<mask id="path-4-inside-1_2_63" fill="white">
<path fill-rule="evenodd" clip-rule="evenodd" d="M149.477 29.7305C146.259 28.2225 142.427 29.6092 140.919 32.8279L102.766 114.259C102.717 114.365 102.686 114.478 102.676 114.594L101.256 130.437C101.173 131.367 102.297 131.894 102.958 131.234L114.223 120.004C114.305 119.922 114.373 119.826 114.422 119.72L152.575 38.289C154.083 35.0703 152.696 31.2386 149.477 29.7305Z"/>
</mask>
<path fill-rule="evenodd" clip-rule="evenodd" d="M149.477 29.7305C146.259 28.2225 142.427 29.6092 140.919 32.8279L102.766 114.259C102.717 114.365 102.686 114.478 102.676 114.594L101.256 130.437C101.173 131.367 102.297 131.894 102.958 131.234L114.223 120.004C114.305 119.922 114.373 119.826 114.422 119.72L152.575 38.289C154.083 35.0703 152.696 31.2386 149.477 29.7305Z" fill="#FF7E67"/>
<path d="M114.223 120.004L113.517 119.296L114.223 120.004ZM102.958 131.234L103.664 131.943L102.958 131.234ZM102.676 114.594L101.68 114.505L102.676 114.594ZM141.825 33.2522C143.098 30.5336 146.335 29.3623 149.053 30.6361L149.902 28.825C146.183 27.0826 141.756 28.6849 140.013 32.4036L141.825 33.2522ZM103.672 114.683L141.825 33.2522L140.013 32.4036L101.861 113.835L103.672 114.683ZM102.252 130.526L103.672 114.683L101.68 114.505L100.26 130.348L102.252 130.526ZM113.517 119.296L102.252 130.526L103.664 131.943L114.929 120.712L113.517 119.296ZM151.669 37.8647L113.517 119.296L115.328 120.144L153.48 38.7132L151.669 37.8647ZM149.053 30.6361C151.772 31.9098 152.943 35.1461 151.669 37.8647L153.48 38.7132C155.223 34.9944 153.621 30.5673 149.902 28.825L149.053 30.6361ZM114.929 120.712C115.094 120.548 115.229 120.356 115.328 120.144L113.517 119.296L114.929 120.712ZM100.26 130.348C100.093 132.208 102.341 133.261 103.664 131.943L102.252 130.526L100.26 130.348ZM101.861 113.835C101.762 114.046 101.701 114.273 101.68 114.505L103.672 114.683L103.672 114.683L101.861 113.835Z" fill="#FF7E67" mask="url(#path-4-inside-1_2_63)"/>
</svg>
